{"title":"71.2014.DVDRip.X264.AC3-playSD","uid":11768539,"size":815518619,"categoryP":"video","categoryS":"movies","magnet":"?xt=urn:btih:ca11d2066cb0c184e329dda8c9298b5e4b8d2d10&amp;dn=71.2014.DVDRip.X264.AC3-playSD&amp;tr=udp%3A%2F%2Ftracker.openbittorrent.com%3A80&amp;tr=udp%3A%2F%2Fopen.demonii.com%3A1337&amp;tr=udp%3A%2F%2Ftracker.coppersurfer.tk%3A6969&amp;tr=udp%3A%2F%2Fexodus.desync.com%3A6969","seeders":1,"leechers":0,"uploader":"TvTeam","files":4,"time":1426962408,"description":" &lt;a href=&quot;https://www.torrenting.com&quot; rel=&quot;nofollow&quot; target=&quot;_NEW&quot;&gt;https://www.torrenting.com&lt;/a&gt;\n\nSign up is OPEN - for the time being. Come and have fun.\n\n.General\nUnique ID                   : 235144793533294442834258419582629217727 (0xB0E73D6AF475B7D087DCDFCDA3A685BF)\nComplete name               : K:71.2014.DVDRip.X264.AC3-playSD71.2014.DVDRip.X264.AC3-playSD.mkv\nFormat                      : Matroska\nFormat version              : Version 4 / Version 2\nFile size                   : 768 MiB\nDuration                    : 1h 35mn\nOverall bit rate            : 1 128 Kbps\nEncoded date                : UTC 2015-03-20 18:54:14\nWriting application         : mkvmerge v7.7.0 ('Six Voices') 64bit built on Feb 28 2015 23:39:33\nWriting library             : libebml v1.3.1 + libmatroska v1.4.2\nDURATION                    : 01:35:11.808000000\nNUMBER_OF_FRAMES            : 178494\nNUMBER_OF_BYTES             : 274166784\n_STATISTICS_WRITING_APP     : mkvmerge v7.7.0 ('Six Voices') 64bit built on Feb 28 2015 23:39:33\n_STATISTICS_WRITING_DATE_UT : 2015-03-20 18:54:14\n_STATISTICS_TAGS            : BPS DURATION NUMBER_OF_FRAMES NUMBER_OF_BYTES\n\nVideo\nID                          : 1\nFormat                      : AVC\nFormat/Info                 : Advanced Video Codec\nFormat profile              : High &lt;a class=&quot;__cf_email__&quot; href=&quot;/cdn-cgi/l/email-protection&quot; data-cfemail=&quot;cffeff8f83fce1ff&quot;&gt;[email&amp;#160;protected]&lt;/a&gt;&lt;script cf-hash='f9e31' type=&quot;text/javascript&quot;&gt;\n/* &lt;![CDATA[ */!function(){try{var t=&quot;currentScript&quot;in document?document.currentScript:function(){for(var t=document.getElementsByTagName(&quot;script&quot;),e=t.length;e--;)if(t[e].getAttribute(&quot;cf-hash&quot;))return t[e]}();if(t&amp;&amp;t.previousSibling){var e,r,n,i,c=t.previousSibling,a=c.getAttribute(&quot;data-cfemail&quot;);if(a){for(e=&quot;&quot;,r=parseInt(a.substr(0,2),16),n=2;a.length-n;n+=2)i=parseInt(a.substr(n,2),16)^r,e+=String.fromCharCode(i);e=document.createTextNode(e),c.parentNode.replaceChild(e,c)}}}catch(u){}}();/* ]]&gt; */&lt;/script&gt;\nFormat settings, CABAC      : Yes\nFormat settings, ReFrames   : 4 frames\nCodec ID                    : V_MPEG4/ISO/AVC\nDuration                    : 1h 35mn\nBit rate                    : 722 Kbps\nWidth                       : 720 pixels\nHeight                      : 304 pixels\nDisplay aspect ratio        : 2.35:1\nFrame rate mode             : Constant\nFrame rate                  : 25.000 fps\nColor space                 : YUV\nChroma subsampling          : 4:2:0\nBit depth                   : 10 bits\nScan type                   : Progressive\nBits/(Pixel*Frame)          : 0.132\nStream size                 : 491 MiB (64%)\nWriting library             : x264 core 142 r2479 dd79a61\nEncoding settings           : cabac=1 / ref=1 / deblock=1:-2:-2 / analyse=0x3:0x113 / me=hex / subme=2 / psy=1 / psy_rd=1.00:0.15 / mixed_ref=0 / me_range=16 / chroma_me=1 / trellis=0 / 8x8dct=1 / cqm=0 / deadzone=21,11 / fast_pskip=1 / chroma_qp_offset=-2 / threads=6 / lookahead_threads=2 / sliced_threads=0 / slices=5 / nr=0 / decimate=1 / interlaced=0 / bluray_compat=0 / constrained_intra=0 / bframes=3 / b_pyramid=2 / b_adapt=1 / b_bias=0 / direct=1 / weightb=1 / open_gop=0 / weightp=1 / keyint=250 / keyint_min=25 / scenecut=40 / intra_refresh=0 / rc_lookahead=10 / rc=crf / mbtree=1 / crf=19.0 / qcomp=0.60 / qpmin=10 / qpmax=51 / qpstep=4 / ip_ratio=1.40 / aq=1:1.00\nLanguage                    : English\nDefault                     : Yes\nForced                      : No\nMatrix coefficients         : BT.709\nColor range                 : Limited\nDURATION                    : 01:35:11.760000000\nNUMBER_OF_FRAMES            : 142794\nNUMBER_OF_BYTES             : 529969319\n_STATISTICS_WRITING_APP     : mkvmerge v7.7.0 ('Six Voices') 64bit built on Feb 28 2015 23:39:33\n_STATISTICS_WRITING_DATE_UT : 2015-03-20 18:54:14\n_STATISTICS_TAGS            : BPS DURATION NUMBER_OF_FRAMES NUMBER_OF_BYTES\n\nAudio\nID                          : 2\nFormat                      : AC-3\nFormat/Info                 : Audio Coding 3\nMode extension              : CM (complete main)\nFormat settings, Endianness : Big\nCodec ID                    : A_AC3\nDuration                    : 1h 35mn\nBit rate mode               : Constant\nBit rate                    : 384 Kbps\nChannel(s)                  : 6 channels\nChannel positions           : Front: L C R, Side: L R, LFE\nSampling rate               : 48.0 KHz\nBit depth                   : 16 bits\nCompression mode            : Lossy\nStream size                 : 261 MiB (34%)\nDefault                     : Yes\nForced                      : No","torrent":{"xt":"urn:btih:ca11d2066cb0c184e329dda8c9298b5e4b8d2d10","amp;dn":"71.2014.DVDRip.X264.AC3-playSD","amp;tr":["udp%3A%2F%2Ftracker.openbittorrent.com%3A80","udp%3A%2F%2Fopen.demonii.com%3A1337","udp%3A%2F%2Ftracker.coppersurfer.tk%3A6969","udp%3A%2F%2Fexodus.desync.com%3A6969"],"infoHash":"ca11d2066cb0c184e329dda8c9298b5e4b8d2d10","infoHashBuffer":{"type":"Buffer","data":[202,17,210,6,108,176,193,132,227,41,221,168,201,41,139,94,75,141,45,16]},"announce":[],"urlList":[]}}